#!OML:ASF F:\VICON\USERDATA\INSTALL\rory3\rory3.ASF
:FULLY-SPECIFIED
:DEGREES
274
root -5.38837 17.9422 12.8118 194.144 -65.6707 161.003
lowerback 13.1192 -2.10546 -8.77876
upperback 2.05174 -4.0394 2.07995
thorax -4.41381 -1.91635 7.84763
lowerneck -0.592549 -10.1093 -12.1993
upperneck 36.394 -25.6079 14.863
head 17.2937 -12.5675 4.05775
rclavicle -5.00937e-014 1.11319e-014
rhumerus -41.2087 -17.6006 -74.1274
rradius 36.2479
rwrist 3.43274
rhand -16.9247 8.03974
rfingers 7.12502
rthumb 9.30796 -21.7348
lclavicle -5.00937e-014 1.11319e-014
lhumerus -20.6885 8.10468 85.5753
lradius 29.6362
lwrist -5.7557
lhand -20.799 26.375
lfingers 7.12502
lthumb 5.56846 56.2818
rfemur -26.7754 0.486898 14.431
rtibia 54.4351
rfoot -8.84139 -0.285509
rtoes 13.5276
lfemur 3.1872 -0.0354942 -25.373
ltibia 18.6449
lfoot -6.33234 -9.64937
ltoes -15.2936
275
root -5.31208 17.9485 12.8363 194.36 -66.2884 160.62
lowerback 13.1492 -2.0957 -8.67
upperback 2.08102 -4.01864 1.96792
thorax -4.41941 -1.90876 7.66195
lowerneck -0.400609 -10.0792 -11.9656
upperneck 36.4082 -25.5757 14.8575
head 17.208 -12.5402 4.04792
rclavicle -1.19072e-013 1.90833e-014
rhumerus -41.6622 -17.8454 -74.0853
rradius 36.1796
rwrist 3.87687
rhand -16.7476 7.82132
rfingers 7.12502
rthumb 9.47892 -21.9455
lclavicle -1.19072e-013 1.90833e-014
lhumerus -21.104 8.0605 85.2825
lradius 29.4641
lwrist -5.12057
lhand -20.5182 26.2598
lfingers 7.12502
lthumb 5.83952 56.1594
rfemur -26.3547 0.38555 14.3621
rtibia 56.2704
rfoot -8.94804 -0.0833643
rtoes 12.5603
lfemur 2.84215 -0.225709 -25.2783
ltibia 18.9892
lfoot -6.26613 -9.78903
ltoes -15.0796
276
root -5.23598 17.9426 12.8599 194.705 -67.0018 160.176
lowerback 13.1045 -2.1662 -8.60869
upperback 2.11757 -4.10529 1.82832
thorax -4.35438 -1.95792 7.48298
lowerneck -0.458957 -10.003 -11.4912
upperneck 36.6424 -25.4936 14.69
head 17.216 -12.4561 3.92316
rclavicle 2.20651e-014 7.15625e-015
rhumerus -41.9741 -17.8745 -74.3376
rradius 36.041
rwrist 3.76779
rhand -16.7813 7.48876
rfingers 7.12502
rthumb 9.44635 -22.2795
lclavicle 2.20651e-014 7.15625e-015
lhumerus -21.4781 8.30313 84.7402
lradius 29.2247
lwrist -4.90254
lhand -20.0649 25.7886
lfingers 7.12502
lthumb 6.27715 55.6756
rfemur -25.8884 0.0564143 14.3999
rtibia 57.916
rfoot -9.1554 -0.126859
rtoes 7.77221
lfemur 2.39363 -0.465215 -25.1628
ltibia 19.3824
lfoot -5.94757 -10.2199
ltoes -13.5446
277
root -5.15663 17.9464 12.877 194.937 -67.7477 159.868
lowerback 13.0918 -2.18759 -8.49026
upperback 2.14842 -4.1191 1.74218
thorax -4.32716 -1.96921 7.32202
lowerneck -0.385198 -9.99274 -11.1663
upperneck 36.6091 -25.4599 14.7046
head 17.1207 -12.4022 3.89731
rclavicle 1.12313e-013 -2.22639e-014
rhumerus -42.4067 -18.11 -74.3832
rradius 35.9753
rwrist 3.4042
rhand -16.8615 7.8564
rfingers 7.12502
rthumb 9.36898 -21.9154
lclavicle 1.12313e-013 -2.22639e-014
lhumerus -21.7237 8.32691 84.348
lradius 28.9277
lwrist -4.6621
lhand -19.8259 26.0281
lfingers 7.12502
lthumb 6.50786 55.9082
rfemur -25.3437 -0.112782 14.4794
rtibia 59.4774
rfoot -9.14907 -0.0826876
rtoes 5.06876
lfemur 1.96079 -0.617951 -24.9374
ltibia 19.7061
lfoot -5.52088 -10.786
ltoes -12.0604
278
root -5.08166 17.9646 12.8909 195.283 -68.5051 159.5
lowerback 13.0083 -2.25284 -8.38622
upperback 2.10845 -4.17991 1.78024
thorax -4.31704 -1.99835 7.30781
lowerneck -0.127662 -9.93697 -11.3764
upperneck 36.5094 -25.3529 14.8551
head 17.0513 -12.3907 4.04145
rclavicle 3.00165e-014 -2.06736e-014
rhumerus -43.0058 -18.2211 -74.0847
rradius 36.1037
rwrist 3.3155
rhand -16.4911 8.05537
rfingers 7.12502
rthumb 9.72641 -21.7
lclavicle 3.00165e-014 -2.06736e-014
lhumerus -22.1007 8.82203 84.0891
lradius 28.5696
lwrist -4.92547
lhand -19.6888 26.1147
lfingers 7.12502
lthumb 6.64025 55.9906
rfemur -24.7488 -0.174303 14.4864
rtibia 60.9635
rfoot -9.07285 0.0587169
rtoes 4.23375
lfemur 1.54827 -0.764771 -24.7313
ltibia 19.9037
lfoot -5.26385 -11.2168
ltoes -11.0216
279
root -5.00938 17.9873 12.9079 195.668 -69.2623 159.102
lowerback 12.9015 -2.38098 -8.28909
upperback 2.02681 -4.31893 1.90991
thorax -4.3162 -2.06344 7.40701
lowerneck 0.151904 -9.81167 -11.8718
upperneck 36.5425 -25.1203 14.9054
head 17.0462 -12.3732 4.21653
rclavicle 2.3556e-014 -1.11319e-014
rhumerus -43.5212 -18.0802 -73.7033
rradius 36.1037
rwrist 3.32222
rhand -16.2077 7.97896
rfingers 7.12502
rthumb 9.99983 -21.7635
lclavicle 2.3556e-014 -1.11319e-014
lhumerus -22.6932 9.40155 83.885
lradius 28.3405
lwrist -5.1113
lhand -19.4875 25.6793
lfingers 7.12502
lthumb 6.83457 55.549
rfemur -24.131 -0.261935 14.4688
rtibia 62.3479
rfoot -8.90148 0.176517
rtoes 2.95024
lfemur 1.23606 -1.11799 -24.598
ltibia 19.8715
lfoot -4.84612 -11.5204
ltoes -9.69786
280
root -4.9322 18.0017 12.926 195.931 -69.989 158.79
lowerback 12.8836 -2.46551 -8.14548
upperback 1.97756 -4.40521 1.98017
thorax -4.34802 -2.10342 7.41366
lowerneck 0.270326 -9.76063 -12.0024
upperneck 36.6603 -24.946 14.7316
head 17.0251 -12.3334 4.21342
rclavicle -7.31528e-014 1.59028e-015
rhumerus -43.8422 -17.7063 -73.6825
rradius 35.849
rwrist 2.95869
rhand -16.3803 7.79484
rfingers 7.12502
rthumb 9.83329 -21.9556
lclavicle -7.31528e-014 1.59028e-015
lhumerus -23.2046 9.53746 83.6613
lradius 28.2002
lwrist -4.9477
lhand -19.356 25.3602
lfingers 7.12502
lthumb 6.96153 55.2257
rfemur -23.4077 -0.246003 14.4956
rtibia 63.578
rfoot -8.56459 0.296473
rtoes 2.32662
lfemur 0.996932 -1.48456 -24.4455
ltibia 19.7315
lfoot -4.27771 -11.7908
ltoes -9.51113
281
root -4.85261 18.0144 12.9419 196.469 -70.7012 158.219
lowerback 12.8243 -2.50175 -8.089
upperback 2.0049 -4.43844 2.00842
thorax -4.28208 -2.12532 7.41034
lowerneck 0.222983 -9.80089 -12.0098
upperneck 36.6602 -24.9082 14.6768
head 17.016 -12.3056 4.19713
rclavicle 2.52457e-014 -1.59028e-014
rhumerus -44.0262 -17.4474 -73.8398
rradius 35.5202
rwrist 2.40158
rhand -16.9168 7.77991
rfingers 7.12502
rthumb 9.31567 -21.9943
lclavicle 2.52457e-014 -1.59028e-014
lhumerus -23.5537 9.53372 83.4533
lradius 28.1193
lwrist -4.8779
lhand -19.1014 25.5899
lfingers 7.12502
lthumb 7.20723 55.4471
rfemur -22.6225 -0.210741 14.4585
rtibia 64.6233
rfoot -8.11338 0.388262
rtoes 2.0991
lfemur 0.727396 -1.73726 -24.3292
ltibia 19.5798
lfoot -3.78016 -12.302
ltoes -10.5794
282
root -4.77627 18.037 12.9566 195.938 -71.5458 158.694
lowerback 12.8313 -2.58208 -7.5925
upperback 2.04298 -4.47132 2.15027
thorax -4.26634 -2.15123 7.28348
lowerneck 0.255464 -9.82137 -12.2578
upperneck 36.5927 -24.8846 14.7883
head 17.0332 -12.3103 4.29211
rclavicle -5.02925e-014 -1.74931e-014
rhumerus -44.3211 -17.3855 -73.8052
rradius 35.3039
rwrist 2.15211
rhand -17.5006 7.79692
rfingers 7.12502
rthumb 8.75226 -22.0016
lclavicle -5.02925e-014 -1.74931e-014
lhumerus -23.9302 9.99026 83.181
lradius 27.9478
lwrist -5.4092
lhand -18.8584 25.5922
lfingers 7.12502
lthumb 7.44183 55.4413
rfemur -21.6905 -0.223564 14.8221
rtibia 65.4827
rfoot -7.5734 0.456138
rtoes 1.92254
lfemur 0.629055 -1.89479 -23.7861
ltibia 19.2764
lfoot -3.29633 -12.9881
ltoes -10.5046
283
root -4.70364 18.0644 12.9598 194.99 -72.3037 159.558
lowerback 12.777 -2.55312 -7.09235
upperback 2.11527 -4.35554 2.27799
thorax -4.20793 -2.10705 7.11239
lowerneck 0.307614 -9.89641 -12.3888
upperneck 36.5219 -24.9802 14.9188
head 17.058 -12.3495 4.35317
rclavicle -6.77856e-014 6.36111e-015
rhumerus -44.7815 -17.8036 -73.4819
rradius 35.1981
rwrist 2.51935
rhand -17.1055 7.6963
rfingers 7.12502
rthumb 9.13358 -22.0859
lclavicle -6.77856e-014 6.36111e-015
lhumerus -24.277 10.3039 82.8442
lradius 27.8223
lwrist -5.81365
lhand -18.5275 25.089
lfingers 7.12502
lthumb 7.76122 54.9266
rfemur -20.6412 -0.0495839 15.3477
rtibia 66.1688
rfoot -6.9839 0.520684
rtoes 1.44128
lfemur 0.702975 -2.15674 -23.1768
ltibia 18.7459
lfoot -2.5218 -13.3845
ltoes -8.41435
284
root -4.63526 18.0858 12.9577 196.393 -72.8836 158.028
lowerback 12.5797 -2.43802 -7.4061
upperback 2.14522 -4.23206 2.18864
thorax -4.07216 -2.04889 7.16172
lowerneck 0.567199 -10.0015 -12.4222
upperneck 36.3137 -25.1271 15.101
head 16.9642 -12.4118 4.42662
rclavicle -3.67752e-015 -1.43125e-014
rhumerus -45.2428 -18.0845 -73.2794
rradius 34.987
rwrist 2.58347
rhand -16.5151 7.55667
rfingers 7.12502
rthumb 9.70322 -22.1998
lclavicle -3.67752e-015 -1.43125e-014
lhumerus -24.6901 9.81034 82.6614
lradius 27.9019
lwrist -5.15681
lhand -19.1863 25.7112
lfingers 7.12502
lthumb 7.12529 55.5713
rfemur -19.6009 0.0406326 15.0395
rtibia 66.7498
rfoot -6.40662 0.824937
rtoes 0.548792
lfemur 0.742011 -2.41498 -23.3689
ltibia 18.1521
lfoot -1.83431 -13.912
ltoes -8.33377
